<?xml version="1.0" standalone="no"?><!DOCTYPE svg PUBLIC "-//W3C//DTD SVG 1.1//EN" "http://www.w3.org/Graphics/SVG/1.1/DTD/svg11.dtd"><svg t="1562654277306" class="icon" viewBox="0 0 1029 1024" version="1.1" xmlns="http://www.w3.org/2000/svg" p-id="1581" width="180.87890625" height="180" xmlns:xlink="http://www.w3.org/1999/xlink"><defs><style type="text/css"></style></defs><path d="M511.455672 1019.412954C262.458828 1019.412954 59.83104 816.785165 59.83104 567.788321c0-249.096562 202.627788-451.624632 451.624632-451.624632s451.624632 202.627788 451.624632 451.624632c0 74.7888-18.647341 148.879571-54.047372 214.294841-7.578598 14.060294-25.029318 19.245651-39.089613 11.667053-13.960576-7.578598-19.245651-25.029318-11.667053-39.089613 30.812986-57.038925 47.067085-121.656448 47.067085-186.971999 0-217.286393-176.701004-393.987397-393.987397-393.987397S117.567993 350.501928 117.567993 567.788321 294.268998 961.775719 511.555391 961.775719c91.042899 0 176.501568-30.114957 247.201912-87.153882 12.365082-9.97184 30.51383-8.07719 40.585389 4.287891 9.97184 12.365082 8.07719 30.51383-4.287891 40.585389-80.073875 64.418086-180.68974 99.917837-283.599129 99.917837z" fill="#383F51" p-id="1582"></path><path d="M889.986717 407.939727c-12.963392 0-24.730163-8.775219-27.921151-21.83833-3.889018-15.456352 5.58423-31.112141 21.040582-35.001158 20.54199-5.085638 38.291865-15.057478 52.651315-29.416928 24.431008-24.431008 36.098061-59.133011 32.707635-97.724032-3.490144-40.48567-22.735795-80.073875-54.147091-111.584889C882.806993 80.963094 843.218788 61.717443 802.733118 58.227299c-38.591021-3.290707-73.293024 8.276627-97.724032 32.707635-19.843962 19.843962-31.211859 46.269337-33.00679 76.583731-0.997184 15.855226-14.459168 28.220307-30.513831 27.123405-15.855226-0.897466-28.02087-14.558886-27.123404-30.513831 2.592678-44.574125 19.843962-84.062611 49.8592-113.978131C700.920632 13.553456 751.777015-3.996983 807.719038 0.7895 861.666692 5.376547 914.018852 30.605302 955.102833 71.689283c41.083981 41.083981 66.213017 93.436141 70.899782 147.383794 4.786483 55.842304-12.763955 106.798406-49.460327 143.494778-21.638893 21.539174-49.061453 36.995526-79.475564 44.574124-2.393242 0.498592-4.786483 0.797747-7.080007 0.797748zM135.81646 402.455215c-3.390426 0-6.88057-0.59831-10.270995-1.89465-22.237203-8.476064-42.081165-21.339738-58.833856-38.092429C-7.578598 288.177928 1.994368 157.746262 88.151065 71.589564c11.268179-11.268179 29.516646-11.268179 40.784826 0 11.268179 11.268179 11.268179 29.516646 0 40.784826-63.620339 63.620339-73.193305 157.555072-21.439456 209.308921 10.969024 10.969024 23.932416 19.34537 38.591021 24.9296 14.858042 5.683949 22.336922 22.336922 16.652972 37.194963-4.38761 11.667053-15.356634 18.647341-26.923968 18.647341zM399.571628 188.858402c-14.658605 0-27.223123-11.168461-28.619181-26.12622-2.692397-28.320026-14.060294-53.149907-32.707635-71.797248-26.225939-26.225939-63.720057-37.593837-105.502067-31.909888-15.855226 2.094086-30.314394-8.874938-32.508198-24.630445-2.193805-15.755507 8.874938-30.314394 24.630444-32.508198C284.197439-6.091069 340.23918 11.459369 379.029637 50.249827c28.320026 28.220307 45.371872 65.315552 49.360608 107.097561 1.495776 15.855226-10.071558 29.91552-25.926784 31.511014h-2.891833zM730.93587 431.672706c-41.682291-24.231571-46.967366-57.437798-92.738112-52.850752-32.308762 3.290707-52.551597 25.627629-55.742585 47.864832-6.381978 45.072717 33.605101 98.023187 60.229913 127.639551 31.909888 35.49975 89.646841 36.596653 118.764614-1.19662 3.689581-4.786483 6.88057-10.071558 9.473248-15.755508 18.04903-39.987078 1.595494-81.569651-39.987078-105.701503z m-93.934733 59.232729c-13.860858 0-25.129037-11.268179-25.129036-25.129037 0-13.860858 11.268179-25.129037 25.129036-25.129036s25.129037 11.268179 25.129037 25.129036c-0.099718 13.860858-11.268179 25.129037-25.129037 25.129037zM252.187833 537.374209c2.592678 5.683949 5.783667 10.969024 9.473248 15.755508 29.117773 37.793273 86.854726 36.596653 118.764614 1.19662 26.624813-29.616365 66.611891-82.566835 60.229913-127.639551-3.190989-22.237203-23.334106-44.673843-55.742585-47.864832-45.770745-4.587046-51.155539 28.619181-92.738112 52.850752-41.682291 24.131853-58.135827 65.714425-39.987078 105.701503zM360.980607 465.776398c0-13.860858 11.268179-25.129037 25.129037-25.129036s25.129037 11.268179 25.129036 25.129036c0 13.860858-11.268179 25.129037-25.129036 25.129037S360.980607 479.637256 360.980607 465.776398z" fill="#383F51" p-id="1583"></path><path d="M440.855045 690.342235c0 10.171277 4.188173 19.94368 11.567335 27.023686l24.131852 23.03495c6.980288 6.681133 16.254099 10.370714 25.827066 10.370714h28.220307c9.672685 0 18.846778-3.689581 25.827065-10.370714l24.131853-23.03495c7.379162-7.080006 11.567334-16.85241 11.567335-27.023686 0-20.641709-16.752691-37.3944-37.3944-37.3944h-76.484013c-20.641709 0-37.3944 16.752691-37.3944 37.3944z" fill="#383F51" p-id="1584"></path><path d="M424.600946 808.907412c-29.217491 0-59.332448-11.268179-90.045715-33.605101-8.575782-6.282259-10.470432-18.248467-4.188173-26.824249 6.282259-8.575782 18.248467-10.470432 26.82425-4.287892 29.815802 21.738611 57.836672 29.91552 82.965708 24.630445 37.99271-8.07719 59.432166-44.87328 59.631603-45.272153 5.285075-9.174093 16.952128-12.365082 26.22594-7.179725 9.174093 5.185357 12.4648 16.85241 7.279443 26.126221-1.196621 2.094086-29.716083 51.853568-84.660922 63.819775-7.977472 1.695213-15.954944 2.592678-24.032134 2.592679z" fill="#383F51" p-id="1585"></path><path d="M624.636056 813.39474c-56.640051 0-103.108825-40.585389-123.750534-69.104851-6.182541-8.575782-4.287891-20.641709 4.287891-26.82425 8.575782-6.182541 20.641709-4.287891 26.824249 4.287891 2.692397 3.589862 61.725689 82.467117 135.716743 41.283418 9.273811-5.185357 21.040582-1.794931 26.12622 7.47888 5.185357 9.273811 1.794931 20.940864-7.47888 26.126221-21.339738 11.86649-42.180883 16.752691-61.725689 16.752691z" fill="#383F51" p-id="1586"></path></svg>